Patient4_TMGait_0pt6_02_left_12_EMG.mot
version=1
nRows=20
nColumns=33
inDegrees=no
endheader
time	1LAddLong	2LGlutMax	3LGlutMed	4LIliopsoas	5LSemiMemb	6LBicFemLong	7LRecFem	8LVastMed	9LVastLat	10LGasMed	11LTibAnt	12lTibPost	13LPeroneusLong	14LSol	15LExtDigLong	16LFlexDigLong	17RAddLong	18RGlutMax	19RGlutMed	20RIliopsoas	21RSemiMemb	22RBicFemLong	23RRecFem	24RVastMed	25RVastLat	26RGasMed	27RTibAnt	28RTibPost	29RPeroneusLong	30RSol	31RExtDigLong	32RFlexDigLong
14.71	0.010529	-0.10315	-0.026398	-0.004578	-0.007477	-0.039825	0.037537	-0.00473	0.3006	-0.03067	0.032043	-0.001526	0.080719	-0.061035	0.17456	0.005798	-0.0177	0.33783	-0.097656	-0.029907	-0.1001	-0.038147	0.12497	0.22278	-0.042419	0.003357	-0.001221	0.011749	0.03067	-0.18738	-0.000916	-0.00885
14.711	0.010529	-0.10849	-0.067902	0.007782	0.002899	-0.029449	0.033112	0.005035	0.30685	-0.01709	0.01358	-0.002136	0.08316	-0.048828	0.13947	0.002136	-0.001526	0.27603	-0.16403	-0.001068	0.11169	-0.051422	-0.09079	0.12375	0.031738	-0.041656	-0.68573	0.004578	-0.016022	0.16052	-0.003967	-0.010071
14.712	0.010071	-0.093536	-0.12024	0.001526	-0.006409	-0.042419	0.016174	0.010986	0.28564	-0.031586	-0.013428	-0.002747	0.1088	0.032196	0.42053	0.00061	-0.012207	0.27679	-0.19882	0.016327	0.050354	-0.055847	-0.025787	0.20142	0.083771	-0.076752	-0.4895	-0.007172	-0.044861	0.21332	-0.002441	-0.007477
14.713	0.008087	-0.12695	-0.098267	0.000305	-0.002899	-0.022888	0.036469	0.00885	0.29266	-0.026093	0.041199	-0.005951	0.10513	0.13046	-0.1181	0.002594	0.012207	0.24811	-0.19898	-0.00061	-0.014648	-0.093079	0.02121	0.15411	0.093231	-0.082397	-0.36438	-0.006866	0.10239	0.13077	-0.003967	-0.006866
14.714	0.01297	-0.11704	-0.058136	-0.017853	-0.007935	-0.041046	0.033722	0.006409	0.29236	0.01358	0.028992	-0.005951	-0.000458	0.10605	-0.069427	-0.004272	0.016785	0.21622	-0.1648	0.045013	-0.045013	-0.14053	0.085754	0.046692	0.036011	-0.068359	-0.36041	-0.002899	0.28702	0.15564	-0.00473	-0.002899
14.715	0.00885	-0.11902	-0.051575	-0.003357	-0.00885	-0.029602	0.032806	0.007324	0.28	0.027771	0.011444	-0.002899	0.046387	0.018005	-0.040894	0.008087	0.016022	0.22995	-0.19898	0.065918	-0.051422	-0.13245	-0.037689	-0.09491	0.045319	-0.016479	-0.37369	-0.013123	0.17944	0.13596	0.000305	-0.005493
14.716	0.003204	-0.1236	-0.03952	-0.019989	-0.003967	-0.016479	0.036163	0.015106	0.27908	-0.017853	0.002441	0.005646	0.094147	-0.021515	-0.011139	0.004425	-0.008698	0.19196	-0.21484	0.072937	-0.031738	-0.092316	-0.12726	-0.024567	0.11704	0.070343	-0.37048	-0.02182	0.001526	0.17487	-0.003662	-0.009613
14.717	0.007935	-0.1387	-0.064392	-0.004272	0.016327	0	0.032654	0.008545	0.26855	-0.025024	-0.00473	0.002441	0.094452	-0.031128	-0.0383	-0.000763	-0.007172	0.16007	-0.20218	0.049438	-0.031738	-0.064087	-0.04364	0.095367	0.31387	0.096283	-0.53528	-0.00412	0.4248	0.12528	-0.003052	-0.007019
14.718	0.004578	-0.1152	-0.10147	0.000458	0.005951	0.02655	0.049133	0.013275	0.25925	-0.040741	-0.009308	-0.005646	0.15243	0.010986	-0.028381	-0.001068	-0.005493	0.15442	-0.21896	0.006256	-0.034637	-0.041351	0.40604	0.061035	0.51468	0.034637	-0.52719	0.053558	0.60333	0.04776	-0.003967	-0.009918
14.719	0.00061	-0.11108	-0.12909	0.003357	0.009155	0.045166	0.039063	0.010986	0.25269	-0.036926	0.016022	-0.002289	0.14008	0.067139	0.070343	-0.001068	-0.00824	0.15335	-0.3627	-0.064697	-0.028687	-0.033112	0.35309	-0.009918	0.44601	0.013275	-0.53345	0.02594	0.28366	0.011139	-0.006561	-0.009918
14.72	0.001373	-0.1088	-0.12116	-0.007172	0.004425	0.020752	0.042572	0.009613	0.23895	-0.031128	0.05249	-0.001373	0.13123	0.069122	0.08316	0.000458	-0.00061	0.14206	-0.47913	-0.046234	-0.035095	-0.047607	-0.057678	0.13763	0.40314	0.010834	-0.68558	0.000763	-0.11993	-0.069427	-0.006561	-0.000153
14.721	0.002136	-0.09964	-0.066833	-0.007629	-0.030975	-0.001373	0.044556	0.016632	0.23086	-0.022736	0.053406	-0.002899	0.17532	0.070343	0.023041	-0.005188	-0.00824	0.18097	-0.47119	-0.032654	-0.037994	-0.056763	-0.10681	0.16922	0.20783	0.014343	-0.61706	-0.000916	-0.69427	-0.16113	-0.001831	0.001373
14.722	0.006104	-0.10773	-0.018005	-0.002289	-0.045319	-0.047607	0.046844	0.011139	0.233	-0.001526	0.045776	-0.006714	0.19028	0.053864	-0.020752	-0.010834	-0.00351	0.18814	-0.44968	-0.046997	-0.045624	-0.049133	-0.83359	-0.090179	-0.053558	0.014038	-0.28015	0.000763	-1.1696	-0.18478	-0.000763	0.00061
14.723	0.003204	-0.12283	-0.037842	0.010223	-0.000763	-0.042572	0.048065	0.012665	0.2269	0.007629	0.046844	-0.002594	0.1297	0.027161	-0.005798	0.010376	-0.006561	0.13779	-0.45944	0.020142	-0.046234	-0.021515	-1.2727	-0.32455	-0.16159	0.019531	0.15259	0	-0.61569	-0.26428	-0.001526	0.003815
14.724	0.003204	-0.09491	-0.050964	0.010681	0.014954	0.008087	0.049744	0.010223	0.22201	0.015106	0.023804	-0.004272	0.11215	-0.034637	-0.003967	0.011902	0.009003	0.11948	-0.39993	0.048676	-0.048676	-0.087585	-0.65445	-0.17075	-0.18707	0.007477	0.57083	0.001831	0.4892	-0.3122	-0.003357	0.000305
14.725	0.005493	-0.04776	-0.028076	0.003662	0.010071	0.003967	0.036163	0.016785	0.22079	0.015411	-0.00412	0.006714	0.10361	-0.072937	-0.009613	0	0.027618	0.1445	-0.44784	0.085449	-0.061035	-0.12817	-0.16815	-0.046234	-0.44067	-0.016174	0.7103	-0.000153	1.2465	-0.19547	0.000458	-0.013733
14.726	0.005951	-0.030365	-0.05249	0.013428	-0.002747	0.023499	0.040131	0.010834	0.21072	-0.006256	-0.01358	0.000305	0.11414	-0.023804	0.050964	0.011292	0.018463	0.11063	-0.48599	0.066528	-0.041504	-0.052795	0.059052	0.11169	-0.35706	-0.022888	1.0225	0.003357	0.89935	-0.20294	-0.003815	-0.016327
14.727	0.005493	0.003052	-0.076752	0.006104	-0.005341	0.018463	0.031128	0.010071	0.19562	-0.044403	0.025482	0.00061	0.063782	-0.006104	0.078125	0.003967	-0.015411	0.12222	-0.23773	-0.000153	-0.028076	0.009155	0.002747	0.29373	-0.090485	0.005341	0.8223	0.008087	1.8283	-0.26367	-0.001221	-0.012512
14.728	0.005646	0.011902	-0.059357	-0.006714	-0.032349	0.020447	0.037537	0.013275	0.19196	-0.091248	0.024719	0.002747	0.06073	-0.12909	0.001221	-0.012207	-0.027161	0.16632	-0.064545	-0.045013	-0.027161	0.070801	-0.1474	0.3508	0.22766	0.017242	-0.3125	0.003204	0.66834	-0.24963	-0.002594	-0.00824
14.729	0	0.046387	-0.055084	-0.003662	-0.051727	0.009308	0.036469	0.011139	0.18478	-0.078888	0.03006	-0.00473	0.06958	-0.20966	0.11902	-0.007172	-0.00946	0.17578	0.080719	-0.10208	-0.033264	0.048523	-0.12604	0.22705	0.23926	0.01236	0.03891	0.011292	-0.25238	-0.23529	-0.001068	-0.009003
